

<svg version="1.0" xmlns="http://www.w3.org/2000/svg"
 width="225.000000pt" height="225.000000pt" viewBox="0 0 225.000000 225.000000"
 preserveAspectRatio="xMidYMid meet">

<g transform="translate(0.000000,225.000000) scale(0.100000,-0.100000)"
fill="#000000" stroke="none">
<path d="M595 2237 c-17 -8 -36 -26 -43 -41 -15 -33 -17 -402 -2 -440 21 -57
117 -74 169 -30 l31 26 0 222 c0 222 0 223 -24 245 -30 28 -91 36 -131 18z"/>
<path d="M1560 2243 c-8 -3 -25 -15 -37 -26 -23 -20 -23 -25 -23 -238 0 -120
3 -225 6 -234 9 -22 57 -45 94 -45 37 0 85 23 94 45 3 9 6 114 6 234 0 217 0
218 -24 240 -24 23 -87 36 -116 24z"/>
<path d="M117 2016 c-50 -18 -76 -42 -98 -91 -18 -38 -19 -87 -19 -905 0 -538
4 -878 10 -899 13 -46 65 -99 110 -111 48 -13 1962 -13 2010 0 45 12 97 65
110 111 6 21 10 361 10 899 0 818 -1 867 -19 905 -37 82 -89 104 -246 105
-126 0 -155 -11 -155 -60 0 -49 29 -60 153 -60 60 0 117 -5 128 -10 18 -10 19
-24 19 -245 l0 -235 -1005 0 -1005 0 0 235 c0 221 1 235 19 245 11 5 73 10
139 10 102 0 121 3 135 18 24 26 21 68 -5 86 -29 21 -235 22 -291 2z m2013
-1294 c0 -436 -3 -581 -12 -590 -17 -17 -1969 -17 -1986 0 -9 9 -12 154 -12
590 l0 578 1005 0 1005 0 0 -578z"/>
<path d="M284 1126 c-3 -7 -4 -33 -2 -57 l3 -44 150 0 150 0 0 55 0 55 -148 3
c-120 2 -148 0 -153 -12z"/>
<path d="M744 1126 c-3 -7 -4 -33 -2 -57 l3 -44 150 0 150 0 0 55 0 55 -148 3
c-120 2 -148 0 -153 -12z"/>
<path d="M1204 1126 c-3 -7 -4 -33 -2 -57 l3 -44 150 0 150 0 0 55 0 55 -148
3 c-120 2 -148 0 -153 -12z"/>
<path d="M1664 1126 c-3 -7 -4 -33 -2 -57 l3 -44 150 0 150 0 0 55 0 55 -148
3 c-120 2 -148 0 -153 -12z"/>
<path d="M284 786 c-3 -7 -4 -31 -2 -52 l3 -39 150 0 150 0 0 50 0 50 -148 3
c-120 2 -148 0 -153 -12z"/>
<path d="M744 786 c-3 -7 -4 -31 -2 -52 l3 -39 150 0 150 0 0 50 0 50 -148 3
c-120 2 -148 0 -153 -12z"/>
<path d="M1204 786 c-3 -7 -4 -31 -2 -52 l3 -39 150 0 150 0 0 50 0 50 -148 3
c-120 2 -148 0 -153 -12z"/>
<path d="M1664 786 c-3 -7 -4 -31 -2 -52 l3 -39 150 0 150 0 0 50 0 50 -148 3
c-120 2 -148 0 -153 -12z"/>
<path d="M284 456 c-3 -7 -4 -33 -2 -57 l3 -44 150 0 150 0 3 34 c2 19 1 44
-2 57 -6 24 -7 24 -152 24 -114 0 -146 -3 -150 -14z"/>
<path d="M744 456 c-3 -7 -4 -33 -2 -57 l3 -44 150 0 150 0 3 34 c2 19 1 44
-2 57 -6 24 -7 24 -152 24 -114 0 -146 -3 -150 -14z"/>
<path d="M1205 447 c-4 -13 -5 -39 -3 -58 l3 -34 150 0 150 0 0 55 0 55 -147
3 -147 3 -6 -24z"/>
<path d="M892 2014 c-27 -19 -29 -64 -4 -87 16 -15 48 -17 234 -17 195 0 216
2 231 18 24 26 21 68 -5 86 -19 13 -58 16 -228 16 -170 0 -209 -3 -228 -16z"/>
</g>
</svg>
